#!OML:ASF E:/inclinewalkrobotboard/Project1/Captureday1/Session1/subject1.ASF
:FULLY-SPECIFIED
:DEGREES
26
root 0 0 0 12.669610543229169 5.268208734964459 -4.700934589176882
lowerback 14.037519634821162 3.401863729875121 0.2701121027663168
upperback -4.522349003890101 3.965269710067147 -2.599792137082231
thorax -12.167792923855867 1.8308702276783957 -3.578375322009905
lowerneck -11.439955939067975 8.915299467002336 16.92904359977231
upperneck 35.892215029594624 9.151424275723157 -5.578840758313044
head 15.268868449284422 5.925473272079558 -3.7725498597664777
rclavicle 6.523875893570084E-15 1.1185558310842764E-14
rhumerus -3.110982575858311 11.669233645922352 -77.04534206809765
rradius 36.5769600267803
rwrist -10.197249749991116
rhand -25.89544425366426 -20.709757107618906
rfingers 7.125019999999956
rthumb 0.6611621403695249 -51.24471413802676
lclavicle 1.2871680521506994E-15 4.875481322407966E-15
lhumerus -45.97426416877529 13.46142636912029 69.511130495141
lradius 57.458490032658005
lwrist -11.170660733299123
lhand -17.577202271452197 16.95830730191086
lfingers 7.1250199999998625
lthumb 8.68759143126207 46.40391558577986
rfemur -5.617843142323768 20.573770444667986 34.88842887374152
rtibia -6.583266099220072
rfoot 3.9549869258834107 -27.872245461129452
rtoes -50.29531170807074
lfemur -13.22327875577679 -28.000000675072737 -24.4521637205304
ltibia -0.007662420314510143
lfoot -33.877885800633614 1.4808866435254924
ltoes -36.07542771857418
27
root 0 0 0 12.614361055489198 5.495215227351167 -4.69689360880667
lowerback 14.03046433629131 3.4313284731159017 0.25762189143909464
upperback -4.526254362314578 4.0077534940001485 -2.5711742509093236
thorax -12.16559282302615 1.8547415968364223 -3.5403935977633654
lowerneck -11.394462065517262 8.86626350581756 16.88597841759475
upperneck 36.01066992370411 9.096363086194641 -5.5866697956019875
head 15.30533855439288 5.895924634271713 -3.7755697998224917
rclavicle 6.693492594150575E-15 1.1252995678805767E-14
rhumerus -2.9761084547011047 11.622279834111474 -76.98310278632196
rradius 36.51297732684254
rwrist -10.170506542606276
rhand -25.925666304190997 -20.741291326770554
rfingers 7.125019999999956
rthumb 0.6321595479734352 -51.27870136572816
lclavicle 1.5433090045447977E-15 4.9706346762154335E-15
lhumerus -45.981263327428195 13.669862343445807 69.39145235689621
lradius 57.33677836573027
lwrist -11.223065519681377
lhand -17.52025697092821 16.941200082748498
lfingers 7.125019999999863
lthumb 8.742289315338905 46.38271157763118
rfemur -5.62879666241356 20.45535837462893 34.88521160439447
rtibia -6.4344061061079145
rfoot 3.9832604013070707 -27.803506081071568
rtoes -50.297598963919306
lfemur -14.216170770667887 -27.549909407460042 -24.222323255111455
ltibia 0.7386138062233485
lfoot -33.55048878165704 1.2725018842469353
ltoes -36.69909325666321
28
root 0 0 0 12.561135931525408 5.693526444524567 -4.701378524125333
lowerback 14.035622706739545 3.454118395658546 0.24413840362283934
upperback -4.527782758862097 4.040148310915672 -2.543143014778333
thorax -12.166433019682632 1.8738850937342635 -3.499921210799809
lowerneck -11.342380841813894 8.831221063678841 16.8617033296918
upperneck 36.12201277173915 9.058480551497357 -5.595999896452269
head 15.33989895334148 5.8758915125794395 -3.7800499786099713
rclavicle 6.8140446652167795E-15 1.1296767624762312E-14
rhumerus -2.85208959516952 11.637145116334779 -76.96919085090839
rradius 36.51584768844502
rwrist -10.177710121711963
rhand -25.948483229533704 -20.751753125187122
rfingers 7.125019999999956
rthumb 0.6102420993340356 -51.29098520201704
lclavicle 1.7662283103282295E-15 5.055794214774515E-15
lhumerus -45.98889249174202 13.87394648605192 69.27715075971277
lradius 57.21620112030937
lwrist -11.26507168272402
lhand -17.454462796564254 16.927417408399297
lfingers 7.125019999999864
lthumb 8.80558075218272 46.36438865329704
rfemur -5.543018430486033 20.311631056617543 34.888105257438625
rtibia -6.328196810974756
rfoot 4.069510696041807 -27.747683936838087
rtoes -50.35146235597782
lfemur -15.27027530756314 -27.1361606028874 -23.94924440023304
ltibia 1.4602664350429322
lfoot -33.31986744075305 1.1066311001293876
ltoes -37.29017523383064
29
root 0 0 0 12.51304163672432 5.902276280532698 -4.711715168093802
lowerback 14.041335705616024 3.476516666178023 0.23470265854961958
upperback -4.528567980381272 4.072066065895379 -2.5145670280729506
thorax -12.166821436489574 1.8926407674355556 -3.4604326024902687
lowerneck -11.290377567319618 8.797460336442315 16.841077093618825
upperneck 36.2236578261062 9.02100262282394 -5.600274322859637
head 15.371771760664213 5.856876465651097 -3.7831480292585433
rclavicle 6.9256375065282E-15 1.133667046723993E-14
rhumerus -2.7325206797379833 11.677317360509385 -76.97639871133185
rradius 36.53235867410784
rwrist -10.188100040253474
rhand -25.96639112883433 -20.752984662978037
rfingers 7.125019999999955
rthumb 0.5930668174574976 -51.29364755024936
lclavicle 1.9859538663418752E-15 5.135662084514762E-15
lhumerus -45.99951787209222 14.072345516801583 69.16812512884478
lradius 57.09503874263408
lwrist -11.303171189335107
lhand -17.38522701357874 16.91510084592375
lfingers 7.125019999999865
lthumb 8.872213431931321 46.347359976361105
rfemur -5.37564280592594 20.1438291004685 34.89818174648087
rtibia -6.254956798668022
rfoot 4.200476910839832 -27.69843566381627
rtoes -50.4511358433384
lfemur -16.33834568196895 -26.76526197763683 -23.653202830826906
ltibia 2.137514649627356
lfoot -33.16681305168607 0.9719574183747355
ltoes -37.83294618177818
30
root 0 0 0 12.473562444427543 6.152009919011084 -4.727790097041336
lowerback 14.040565544970036 3.5039583156746295 0.23430671498960187
upperback -4.528996084298905 4.111601145426887 -2.48466650379702
thorax -12.164259483334583 1.9146433718404228 -3.4252477775195396
lowerneck -11.243264310038242 8.75679374186751 16.815163780360766
upperneck 36.31127706690032 8.972574124708995 -5.593407162659691
head 15.399685422983051 5.833413996270233 -3.782510608358604
rclavicle 7.039858157105914E-15 1.1376860822321299E-14
rhumerus -2.6081624676950694 11.724121856112241 -76.99091963121896
rradius 36.53843166310552
rwrist -10.195226808802515
rhand -25.98271590081862 -20.752270774550034
rfingers 7.125019999999955
rthumb 0.5773972912431962 -51.29420618125506
lclavicle 2.1968937027649175E-15 5.216313199624349E-15
lhumerus -46.011719537749855 14.265727442826453 69.06402971351619
lradius 56.97445581987056
lwrist -11.335317878634111
lhand -17.31145684987929 16.904891959538983
lfingers 7.125019999999867
lthumb 8.943227472139363 46.332259803152404
rfemur -5.134829955863395 19.954691990606285 34.91633841613009
rtibia -6.210126117583954
rfoot 4.368030433063311 -27.654045781919734
rtoes -50.58664620147282
lfemur -17.400018630657925 -26.435481975749887 -23.34590543117516
ltibia 2.7697090103716846
lfoot -33.07315702070619 0.8603255474345719
ltoes -38.32644079115941
